<svg width="68" height="68" viewBox="0 0 68 68" fill="none" xmlns="http://www.w3.org/2000/svg">
<path fill-rule="evenodd" clip-rule="evenodd" d="M30.4587 8.50008C30.4587 8.10969 30.7766 7.79175 31.167 7.79175H36.8337C37.2241 7.79175 37.542 8.10969 37.542 8.50008V14.1667C37.542 14.5571 37.2241 14.8751 36.8337 14.8751H31.167C30.7766 14.8751 30.4587 14.5571 30.4587 14.1667V8.50008ZM31.167 3.54175C28.4294 3.54175 26.2087 5.76248 26.2087 8.50008V9.20841H17.0003C12.6959 9.20841 9.20866 12.6956 9.20866 17.0001V26.2084L8.50033 26.2084C5.76272 26.2084 3.54199 28.4291 3.54199 31.1667V36.8334C3.54199 39.571 5.76272 41.7918 8.50033 41.7918H9.20866V51.0001C9.20866 55.3045 12.6959 58.7917 17.0003 58.7917H26.2087V59.5001C26.2087 62.2377 28.4294 64.4584 31.167 64.4584H36.8337C39.5713 64.4584 41.792 62.2377 41.792 59.5001V58.7917H51.0003C55.3048 58.7917 58.792 55.3045 58.792 51.0001V41.7918H59.5003C62.2379 41.7918 64.4587 39.571 64.4587 36.8334V31.1667C64.4587 28.4291 62.2379 26.2084 59.5003 26.2084H58.792V17.0001C58.792 12.6956 55.3048 9.20841 51.0003 9.20841H41.792V8.50008C41.792 5.76248 39.5713 3.54175 36.8337 3.54175H31.167ZM13.4587 51.0001C13.4587 52.9573 15.0431 54.5417 17.0003 54.5417H26.2087V53.8334C26.2087 51.0958 28.4294 48.8751 31.167 48.8751H36.8337C39.5713 48.8751 41.792 51.0958 41.792 53.8334V54.5417H51.0003C52.9576 54.5417 54.542 52.9573 54.542 51.0001V41.7918H53.8337C51.0961 41.7918 48.8753 39.571 48.8753 36.8334V31.1667C48.8753 28.4291 51.0961 26.2084 53.8337 26.2084H54.542V17.0001C54.542 15.0429 52.9576 13.4584 51.0003 13.4584H41.792V14.1667C41.792 16.9044 39.5713 19.1251 36.8337 19.1251H31.167C28.4294 19.1251 26.2087 16.9044 26.2087 14.1667V13.4584H17.0003C15.0431 13.4584 13.4587 15.0429 13.4587 17.0001V26.2084L14.167 26.2084C16.9046 26.2084 19.1253 28.4291 19.1253 31.1667V36.8334C19.1253 39.571 16.9046 41.7918 14.167 41.7918H13.4587V51.0001ZM30.4587 53.8334C30.4587 53.443 30.7766 53.1251 31.167 53.1251H36.8337C37.2241 53.1251 37.542 53.443 37.542 53.8334V59.5001C37.542 59.8905 37.2241 60.2084 36.8337 60.2084H31.167C30.7766 60.2084 30.4587 59.8905 30.4587 59.5001V53.8334ZM8.50033 30.4584C8.10993 30.4584 7.79199 30.7764 7.79199 31.1667V36.8334C7.79199 37.2238 8.10993 37.5417 8.50033 37.5417H14.167C14.5574 37.5417 14.8753 37.2238 14.8753 36.8334V31.1667C14.8753 30.7764 14.5574 30.4584 14.167 30.4584H8.50033ZM53.1253 31.1667C53.1253 30.7764 53.4433 30.4584 53.8337 30.4584H59.5003C59.8907 30.4584 60.2087 30.7764 60.2087 31.1667V36.8334C60.2087 37.2238 59.8907 37.5417 59.5003 37.5417H53.8337C53.4433 37.5417 53.1253 37.2238 53.1253 36.8334V31.1667ZM36.692 34.0001C36.692 35.3471 35.6039 36.4821 34.2128 36.4821C32.8437 36.4821 31.7337 35.372 31.7337 34.0029C31.7337 31.9875 33.3882 31.5355 34.182 31.524C35.5811 31.5037 36.692 32.637 36.692 34.0001Z" fill="#3A7326"/>
</svg>
