<svg width="169" height="36" viewBox="0 0 169 36" fill="none" xmlns="http://www.w3.org/2000/svg">
<path fill-rule="evenodd" clip-rule="evenodd" d="M11.0726 17.8047C10.8758 18.3554 10.5597 18.8558 10.1469 19.2704H10.1491C9.67407 19.7465 9.08642 20.0952 8.44054 20.2842C7.79464 20.4731 7.11143 20.4963 6.45421 20.3515C5.79698 20.2066 5.187 19.8985 4.68079 19.4556C4.17458 19.0128 3.78852 18.4495 3.55839 17.818C3.32826 17.1866 3.2615 16.5073 3.3643 15.8432C3.4671 15.1791 3.73612 14.5516 4.14645 14.0191C4.55679 13.4864 5.09515 13.0658 5.71164 12.7962C6.32814 12.5266 7.00283 12.4166 7.67319 12.4766L7.65358 12.4571C8.33965 12.5149 9.03008 12.4225 9.67671 12.1864C10.3233 11.9503 10.9106 11.5762 11.3974 11.0901C11.8843 10.604 12.2589 10.0178 12.4954 9.37215C12.7319 8.72656 12.8245 8.03721 12.7665 7.35223L12.7861 7.37181C12.7092 6.55267 12.8873 5.72978 13.2961 5.01539C13.7048 4.30099 14.3243 3.72986 15.0701 3.37987C15.8158 3.02989 16.6516 2.91807 17.4633 3.05969C18.275 3.20131 19.0233 3.58947 19.6059 4.17123C20.1886 4.75299 20.5774 5.50003 20.7193 6.31048C20.8611 7.12094 20.7491 7.95534 20.3986 8.69992C20.048 9.4445 19.476 10.063 18.7605 10.4711C18.0449 10.8792 17.2207 11.057 16.4003 10.9802L16.421 10.9998C15.7347 10.9416 15.044 11.0337 14.3971 11.2697C13.7502 11.5056 13.1628 11.8797 12.6757 12.3658C12.1886 12.8519 11.8136 13.4383 11.577 14.0841C11.3404 14.7299 11.2479 15.4195 11.3058 16.1046L11.2852 16.085C11.3419 16.6669 11.2693 17.2541 11.0726 17.8047ZM17.4472 21.453L17.4265 21.4334C18.0095 21.4921 18.5984 21.4206 19.1505 21.2242C19.7026 21.0278 20.2041 20.7114 20.6186 20.2979C21.0331 19.8843 21.3505 19.3838 21.5475 18.8327C21.7447 18.2817 21.8167 17.6939 21.7584 17.1116L21.7791 17.1312C21.7212 16.4462 21.8137 15.7569 22.0501 15.1112C22.2866 14.4657 22.6614 13.8794 23.1482 13.3933C23.6351 12.9073 24.2223 12.5331 24.8689 12.2971C25.5156 12.0609 26.2059 11.9686 26.8921 12.0264L26.8714 12.0068C27.6921 12.0838 28.5166 11.9061 29.2324 11.4979C29.9484 11.0898 30.5207 10.4712 30.8714 9.72638C31.2222 8.98158 31.3342 8.14687 31.1924 7.33611C31.0506 6.52535 30.6617 5.77803 30.0788 5.19605C29.4959 4.61408 28.7474 4.22579 27.9353 4.08418C27.1233 3.94255 26.2873 4.05447 25.5413 4.40467C24.7952 4.75486 24.1757 5.3263 23.7669 6.04103C23.3581 6.75575 23.1801 7.57898 23.2572 8.3984L23.2376 8.37774C23.2957 9.06276 23.2033 9.75218 22.9669 10.3979C22.7306 11.0436 22.3558 11.6299 21.869 12.1161C21.3821 12.6021 20.7948 12.9763 20.1481 13.2123C19.5013 13.4483 18.8108 13.5405 18.1247 13.4826L18.1443 13.5032C17.5612 13.4446 16.9722 13.5161 16.4202 13.7125C15.8682 13.9088 15.3667 14.2252 14.9521 14.6388C14.5375 15.0524 14.2202 15.5529 14.0231 16.1039C13.826 16.655 13.754 17.2428 13.8123 17.825L13.7927 17.8055C13.8504 18.4904 13.7578 19.1797 13.5213 19.8252C13.2847 20.4707 12.91 21.0569 12.4232 21.543C11.9364 22.029 11.3492 22.4031 10.7027 22.6393C10.0561 22.8754 9.36579 22.9679 8.67977 22.9103L8.69937 22.9299C7.87864 22.8529 7.05411 23.0306 6.33825 23.4387C5.62239 23.8469 5.05004 24.4655 4.69929 25.2103C4.34853 25.9552 4.23642 26.7898 4.37828 27.6006C4.52013 28.4113 4.90904 29.1587 5.49193 29.7406C6.07483 30.3226 6.82334 30.7109 7.63539 30.8525C8.44744 30.9941 9.28347 30.8822 10.0295 30.532C10.7755 30.1818 11.3951 29.6104 11.8039 28.8957C12.2126 28.1809 12.3906 27.3577 12.3135 26.5383L12.3342 26.5579C12.2763 25.8728 12.3688 25.1836 12.6053 24.5379C12.8417 23.8923 13.2165 23.3061 13.7033 22.8199C14.1902 22.3339 14.7774 21.9597 15.424 21.7237C16.0707 21.4876 16.761 21.3952 17.4472 21.453ZM25.4826 15.7272C25.0697 16.1419 24.7536 16.6424 24.5567 17.1929C24.3598 17.7435 24.2869 18.3306 24.3432 18.9126L24.3236 18.893C24.3816 19.578 24.289 20.2673 24.0525 20.913C23.816 21.5585 23.4413 22.1448 22.9545 22.6309C22.4676 23.1169 21.8804 23.4911 21.2337 23.7271C20.5871 23.9632 19.8967 24.0557 19.2107 23.9978L19.2303 24.0174C18.4096 23.9412 17.5854 24.1194 16.8699 24.528C16.1544 24.9366 15.5826 25.5555 15.2324 26.3004C14.8822 27.0454 14.7705 27.88 14.9128 28.6906C15.0552 29.5011 15.4444 30.2481 16.0274 30.8298C16.6105 31.4114 17.359 31.7993 18.171 31.9405C18.983 32.0819 19.8188 31.9697 20.5646 31.6194C21.3104 31.269 21.9298 30.6976 22.3383 29.9829C22.7469 29.2682 22.9248 28.4451 22.8477 27.6258L22.8684 27.6454C22.8104 26.9605 22.9029 26.2711 23.1394 25.6254C23.3758 24.9799 23.7507 24.3936 24.2374 23.9075C24.7243 23.4214 25.3116 23.0472 25.9581 22.8112C26.6048 22.5751 27.2952 22.4827 27.9813 22.5405L27.9606 22.521C28.6309 22.5811 29.3057 22.4714 29.9224 22.2019C30.5389 21.9324 31.0774 21.5119 31.4878 20.9793C31.8983 20.4467 32.1675 19.8192 32.2704 19.1552C32.3733 18.491 32.3066 17.8118 32.0766 17.1801C31.8465 16.5486 31.4605 15.9853 30.9543 15.5423C30.4481 15.0994 29.8382 14.7912 29.1809 14.6463C28.5237 14.5015 27.8404 14.5245 27.1944 14.7134C26.5485 14.9024 25.9609 15.2511 25.4858 15.7272H25.4826Z" fill="#51564E"/>
<path d="M47.2314 7.98633H50.7954V25.3299H47.2314V7.98633Z" fill="#51564E"/>
<path d="M52.8136 19.3907C52.8087 18.1444 53.1738 16.9244 53.8626 15.8857C54.5514 14.847 55.533 14.036 56.683 13.5557C57.8331 13.0752 59.0998 12.9469 60.3229 13.187C61.5459 13.4272 62.6702 14.0248 63.5533 14.9044C64.4364 15.7838 65.0385 16.9057 65.2836 18.1278C65.5286 19.3499 65.4054 20.6172 64.9296 21.7692C64.4538 22.9211 63.6468 23.906 62.6108 24.5989C61.5747 25.2919 60.3565 25.6619 59.11 25.6619C58.2828 25.6714 57.4618 25.5157 56.6953 25.2042C55.9287 24.8927 55.232 24.4315 54.6458 23.8477C54.0595 23.2638 53.5956 22.5689 53.281 21.8036C52.9664 21.0384 52.8075 20.2181 52.8136 19.3907ZM61.8424 19.3907C61.8276 18.8534 61.6546 18.3325 61.3454 17.893C61.036 17.4535 60.604 17.1149 60.1034 16.9196C59.6026 16.7243 59.0556 16.6808 58.5303 16.7948C58.0051 16.9088 57.5251 17.175 57.1503 17.5603C56.7757 17.9455 56.5227 18.4327 56.4235 18.961C56.3241 19.4891 56.3826 20.0348 56.5917 20.53C56.8009 21.0251 57.1513 21.4475 57.5991 21.7445C58.0471 22.0415 58.5727 22.1999 59.11 22.1999C59.4781 22.2097 59.8442 22.1431 60.1854 22.0044C60.5264 21.8657 60.835 21.6578 61.0917 21.394C61.3484 21.13 61.5477 20.8157 61.6768 20.4709C61.8061 20.1262 61.8625 19.7584 61.8424 19.3907Z" fill="#51564E"/>
<path d="M79.6105 13.451V24.731C79.6105 28.7222 76.4977 30.4094 73.3381 30.4094C72.2257 30.4926 71.1117 30.2679 70.1185 29.7599C69.1254 29.2518 68.2912 28.4801 67.7077 27.5294L70.7485 25.7714C70.9938 26.267 71.3846 26.6758 71.8686 26.9433C72.3526 27.2106 72.9068 27.3239 73.4569 27.2678C73.8085 27.3165 74.1666 27.2855 74.5046 27.1772C74.8425 27.0688 75.1519 26.8858 75.4096 26.6418C75.6674 26.3978 75.867 26.099 75.9937 25.7673C76.1203 25.4357 76.1707 25.0799 76.1413 24.7262V23.6402C75.7239 24.1508 75.1928 24.5565 74.5903 24.8247C73.9878 25.0929 73.3309 25.2161 72.6721 25.1846C71.1046 25.1351 69.618 24.4778 68.5267 23.3514C67.4354 22.2252 66.8252 20.7185 66.8252 19.1504C66.8252 17.5822 67.4354 16.0755 68.5267 14.9493C69.618 13.823 71.1046 13.1656 72.6721 13.1162C73.3309 13.0846 73.9878 13.2078 74.5903 13.476C75.1928 13.7442 75.7239 14.15 76.1413 14.6606V13.4486L79.6105 13.451ZM76.1425 19.1522C76.1665 18.5778 76.0179 18.0094 75.7161 17.5202C75.4143 17.0308 74.973 16.6431 74.4489 16.4068C73.9249 16.1704 73.3422 16.0964 72.7756 16.194C72.2091 16.2917 71.6848 16.5567 71.2701 16.955C70.8555 17.3531 70.5696 17.8662 70.449 18.4283C70.3285 18.9904 70.3789 19.5758 70.5939 20.1089C70.8088 20.6421 71.1784 21.0988 71.6551 21.4202C72.1317 21.7415 72.6937 21.9129 73.2685 21.9122C73.643 21.9383 74.0187 21.8858 74.3716 21.7578C74.7246 21.6299 75.0468 21.4294 75.3175 21.1695C75.5882 20.9094 75.8016 20.5956 75.9436 20.2481C76.0857 19.9007 76.1535 19.5274 76.1425 19.1522Z" fill="#51564E"/>
<path d="M81.6291 19.3907C81.6242 18.1444 81.9891 16.9244 82.678 15.8857C83.3668 14.847 84.3484 14.036 85.4985 13.5557C86.6486 13.0752 87.9153 12.9469 89.1383 13.187C90.3614 13.4272 91.4856 14.0248 92.3687 14.9044C93.2518 15.7838 93.8539 16.9057 94.099 18.1278C94.344 19.3499 94.2208 20.6172 93.745 21.7692C93.2692 22.9211 92.4622 23.906 91.4262 24.5989C90.3902 25.2919 89.1719 25.6619 87.9255 25.6619C87.0982 25.6714 86.2772 25.5157 85.5107 25.2042C84.7442 24.8927 84.0474 24.4315 83.4612 23.8477C82.8749 23.2638 82.411 22.5689 82.0965 21.8036C81.7818 21.0384 81.623 20.2181 81.6291 19.3907ZM90.6579 19.3907C90.643 18.8534 90.4701 18.3325 90.1608 17.893C89.8515 17.4535 89.4195 17.1149 88.9188 16.9196C88.4181 16.7243 87.8709 16.6808 87.3458 16.7948C86.8205 16.9088 86.3405 17.175 85.9658 17.5603C85.5911 17.9455 85.3382 18.4327 85.2388 18.961C85.1394 19.4891 85.198 20.0348 85.4072 20.53C85.6163 21.0251 85.9667 21.4475 86.4146 21.7445C86.8625 22.0415 87.388 22.1999 87.9255 22.1999C88.2935 22.2097 88.6596 22.1431 89.0007 22.0044C89.3418 21.8657 89.6505 21.6578 89.9072 21.394C90.1638 21.13 90.3631 20.8157 90.4923 20.4709C90.6215 20.1262 90.6779 19.7584 90.6579 19.3907Z" fill="#51564E"/>
<path d="M95.8838 10.2673C95.8838 9.84437 96.0092 9.43093 96.2441 9.07928C96.4791 8.72762 96.8132 8.45353 97.2039 8.29169C97.5946 8.12983 98.0246 8.08748 98.4394 8.17C98.8541 8.25251 99.2353 8.45617 99.5343 8.75524C99.8333 9.05429 100.037 9.43531 100.12 9.85013C100.202 10.2649 100.16 10.6949 99.9979 11.0856C99.836 11.4764 99.5619 11.8104 99.2102 12.0453C98.8586 12.2803 98.4452 12.4057 98.0222 12.4057C97.4569 12.4001 96.9161 12.173 96.5163 11.7732C96.1166 11.3733 95.8894 10.8327 95.8838 10.2673ZM96.2438 13.4509H99.809V25.3309H96.239L96.2438 13.4509Z" fill="#51564E"/>
<path d="M115.198 19.3908C115.239 20.176 115.125 20.9615 114.861 21.7023C114.598 22.443 114.191 23.1244 113.663 23.7072C113.135 24.29 112.498 24.7628 111.787 25.0983C111.075 25.4337 110.305 25.6253 109.52 25.662C108.859 25.698 108.199 25.5867 107.587 25.336C106.975 25.0852 106.426 24.7014 105.981 24.2124V30.0816H102.417V13.4508H105.981V14.5668C106.427 14.0782 106.975 13.6947 107.587 13.4442C108.199 13.1937 108.859 13.0824 109.52 13.1184C110.305 13.155 111.076 13.3466 111.787 13.6821C112.498 14.0176 113.136 14.4904 113.664 15.0734C114.192 15.6563 114.599 16.3379 114.862 17.0789C115.125 17.8198 115.24 18.6056 115.198 19.3908ZM111.634 19.3908C111.62 18.8349 111.443 18.2954 111.124 17.8397C110.805 17.3842 110.358 17.0328 109.841 16.8298C109.323 16.6266 108.757 16.5807 108.213 16.6978C107.669 16.8148 107.172 17.0896 106.784 17.4878C106.395 17.886 106.133 18.3898 106.03 18.9364C105.927 19.4829 105.987 20.0476 106.203 20.5601C106.419 21.0726 106.781 21.5099 107.245 21.8175C107.708 22.1249 108.252 22.289 108.808 22.2888C109.19 22.3059 109.571 22.2419 109.927 22.1013C110.282 21.9608 110.604 21.7466 110.87 21.473C111.137 21.1992 111.343 20.8724 111.475 20.5136C111.606 20.1548 111.661 19.7721 111.634 19.3908Z" fill="#51564E"/>
<path d="M126.196 21.7655C126.196 24.4979 123.821 25.6619 121.256 25.6619C120.219 25.7558 119.178 25.5366 118.268 25.0325C117.357 24.5285 116.618 23.7629 116.147 22.8347L119.235 21.0767C119.36 21.5057 119.628 21.879 119.995 22.134C120.362 22.3892 120.806 22.5107 121.251 22.4783C122.105 22.4783 122.534 22.2167 122.534 21.7427C122.534 20.4347 116.689 21.1247 116.689 17.0147C116.689 14.4239 118.875 13.1183 121.346 13.1183C122.275 13.0889 123.194 13.3092 124.009 13.7562C124.823 14.2034 125.504 14.8607 125.978 15.6599L122.937 17.2991C122.804 16.988 122.582 16.7229 122.299 16.537C122.015 16.3511 121.684 16.2527 121.346 16.2539C120.728 16.2539 120.347 16.4939 120.347 16.9187C120.352 18.2735 126.196 17.3699 126.196 21.7655Z" fill="#51564E"/>
<path d="M139.214 13.4507V25.3307H135.65V24.2135C135.239 24.7064 134.717 25.0949 134.126 25.3469C133.536 25.5989 132.895 25.7072 132.254 25.6631C129.854 25.6631 127.814 23.9531 127.814 20.7431V13.4507H131.378V20.2211C131.348 20.504 131.381 20.7901 131.473 21.0593C131.564 21.3286 131.714 21.5746 131.911 21.7801C132.108 21.9857 132.347 22.1459 132.612 22.2497C132.876 22.3535 133.16 22.3984 133.445 22.3811C134.752 22.3811 135.654 21.6215 135.654 19.9343V13.4543L139.214 13.4507Z" fill="#51564E"/>
<path d="M159.651 18.0361V25.3297H156.087V18.3445C156.087 17.1565 155.517 16.3969 154.377 16.3969C153.189 16.3969 152.523 17.2285 152.523 18.6301V25.3297H148.96V18.3445C148.96 17.1565 148.39 16.3969 147.249 16.3969C146.061 16.3969 145.396 17.2285 145.396 18.6301V25.3297H141.832V13.4497H145.396V14.5417C145.766 14.0572 146.25 13.673 146.806 13.4242C147.363 13.1754 147.972 13.0699 148.58 13.1173C149.189 13.0874 149.796 13.2162 150.342 13.4908C150.887 13.7654 151.352 14.1768 151.691 14.6845C152.086 14.1532 152.609 13.7308 153.212 13.4568C153.814 13.1827 154.476 13.0659 155.136 13.1173C157.864 13.1185 159.651 15.0661 159.651 18.0361Z" fill="#51564E"/>
<path d="M162.665 13.3775C164.126 13.3775 165.31 12.1933 165.31 10.7327C165.31 9.272 164.126 8.08789 162.665 8.08789C161.205 8.08789 160.021 9.272 160.021 10.7327C160.021 12.1933 161.205 13.3775 162.665 13.3775Z" fill="#51564E"/>
</svg>
