<svg width="126" height="40" viewBox="0 0 126 40" fill="none" xmlns="http://www.w3.org/2000/svg">
<g clip-path="url(#clip0_6038_5894)">
<path d="M119.331 2.14869C119.331 0.965694 120.29 0.00569434 121.473 0.00569434H122.902C123.471 0.00569434 124.016 0.231474 124.418 0.633364C124.819 1.03525 125.045 1.58034 125.045 2.14869C125.045 2.71705 124.819 3.26213 124.418 3.66402C124.016 4.06591 123.471 4.29169 122.902 4.29169H121.473C121.192 4.29169 120.913 4.23626 120.653 4.12855C120.393 4.02084 120.157 3.86297 119.958 3.66396C119.759 3.46495 119.602 3.2287 119.494 2.96871C119.386 2.70871 119.331 2.43007 119.331 2.14869ZM59.3402 14.2897C59.3402 22.1777 52.9462 28.5727 45.0572 28.5727C37.1692 28.5727 30.7742 22.1777 30.7742 14.2897C30.7742 6.39969 37.1692 0.00669434 45.0572 0.00669434C52.9462 0.00669434 59.3402 6.39969 59.3402 14.2897ZM27.9882 14.2187C28.7782 14.2187 29.4242 14.8587 29.3452 15.6447C29.0752 18.3345 28.0474 20.8925 26.3813 23.0213C24.7151 25.1502 22.479 26.7625 19.9329 27.6708C17.3867 28.5792 14.6351 28.7463 11.9977 28.1528C9.36031 27.5593 6.94553 26.2294 5.03398 24.3179C3.12243 22.4064 1.79262 19.9916 1.19909 17.3542C0.605561 14.7168 0.772687 11.9652 1.68105 9.419C2.58941 6.87284 4.2017 4.63675 6.33054 2.9706C8.45939 1.30445 11.0174 0.276669 13.7072 0.00669434C14.4922 -0.0733057 15.1332 0.574694 15.1332 1.36269V12.7897C15.1332 13.5797 15.7732 14.2187 16.5622 14.2187H27.9882ZM79.3372 31.4297C80.4736 31.4297 81.5635 31.8811 82.3671 32.6847C83.1707 33.4883 83.6222 34.5782 83.6222 35.7147C83.6222 36.8511 83.1707 37.9411 82.3671 38.7446C81.5635 39.5482 80.4736 39.9997 79.3372 39.9997H72.1962C71.0597 39.9997 69.9698 39.5482 69.1662 38.7446C68.3626 37.9411 67.9112 36.8511 67.9112 35.7147C67.9112 34.5782 68.3626 33.4883 69.1662 32.6847C69.9698 31.8811 71.0597 31.4297 72.1962 31.4297H79.3372ZM75.0522 28.5727C82.9412 28.5727 89.3362 22.1777 89.3362 14.2897C89.3396 11.8666 88.7238 9.48291 87.5472 7.36469L89.9072 5.00469C90.179 4.73273 90.3946 4.40988 90.5417 4.05459C90.6888 3.69929 90.7644 3.31851 90.7643 2.93399C90.7642 2.54946 90.6884 2.16872 90.5412 1.81349C90.3939 1.45827 90.1781 1.13553 89.9062 0.863694C89.6342 0.591858 89.3114 0.376252 88.9561 0.229185C88.6008 0.0821186 88.22 0.00647223 87.8355 0.0065651C87.4509 0.00665796 87.0702 0.0824882 86.715 0.229726C86.3598 0.376964 86.037 0.592727 85.7652 0.864694L83.7052 2.92469C81.22 1.0266 78.1783 0.000662512 75.0512 0.00569434C67.1642 0.00669434 60.7702 6.39969 60.7702 14.2897C60.7702 22.1777 67.1642 28.5727 75.0522 28.5727ZM119.331 14.2897C119.331 22.1777 112.936 28.5727 105.047 28.5727C97.1592 28.5727 90.7642 22.1777 90.7642 14.2897C90.7642 6.39969 97.1592 0.00669434 105.047 0.00669434C112.936 0.00669434 119.331 6.40069 119.331 14.2897Z" fill="#51564E"/>
</g>
<defs>
<clipPath id="clip0_6038_5894">
<rect width="125" height="40" fill="white" transform="translate(0.850586)"/>
</clipPath>
</defs>
</svg>
