<svg width="155" height="36" viewBox="0 0 155 36" fill="none" xmlns="http://www.w3.org/2000/svg">
<g clip-path="url(#clip0_6038_5883)">
<path d="M44.1836 26.1H54.401V23.1906H47.2992V9.60547H44.1836V26.1Z" fill="#51564E"/>
<path d="M60.5413 26.4439C61.7784 26.4439 62.8666 26.169 63.8059 25.6192C64.7528 25.0617 65.4897 24.2943 66.0166 23.3169C66.5511 22.3317 66.8184 21.1977 66.8184 19.9149C66.8184 18.6396 66.5549 17.5132 66.0281 16.5357C65.5011 15.5507 64.7642 14.7794 63.8173 14.2219C62.8781 13.6645 61.7861 13.3857 60.5413 13.3857C59.3195 13.3857 58.2389 13.6607 57.2997 14.2105C56.3604 14.7603 55.6235 15.5277 55.0889 16.5129C54.5544 17.4903 54.2871 18.6243 54.2871 19.9149C54.2871 21.1901 54.5468 22.3203 55.0661 23.3054C55.5929 24.2829 56.3261 25.0503 57.2653 25.6077C58.2046 26.1652 59.2966 26.4439 60.5413 26.4439ZM60.5413 23.5345C59.5715 23.5345 58.8346 23.21 58.3306 22.5609C57.8342 21.9042 57.5861 21.0222 57.5861 19.9149C57.5861 18.8381 57.8228 17.9676 58.2962 17.3032C58.7773 16.6312 59.5257 16.2952 60.5413 16.2952C61.5264 16.2952 62.2671 16.6236 62.7635 17.2803C63.2675 17.937 63.5195 18.8152 63.5195 19.9149C63.5195 20.9763 63.2714 21.8468 62.7749 22.5265C62.2862 23.1984 61.5417 23.5345 60.5413 23.5345Z" fill="#51564E"/>
<path d="M72.9797 26.4437C73.5601 26.4437 74.0946 26.3749 74.5834 26.2375C75.0797 26.1001 75.5303 25.9053 75.935 25.6533V26.9019C75.9503 27.3601 75.8319 27.7418 75.5799 28.0473C75.3355 28.3604 75.0072 28.5933 74.5948 28.7461C74.1824 28.9064 73.7433 28.9866 73.2776 28.9866C72.8422 28.9866 72.4375 28.8911 72.0634 28.7003C71.6968 28.5094 71.4142 28.2306 71.2157 27.8641L68.3292 29.2615C68.8026 30.0633 69.4784 30.7086 70.3566 31.1973C71.2349 31.6937 72.2008 31.9419 73.2546 31.9419C74.1634 31.9419 75.0072 31.8197 75.7861 31.5753C76.565 31.3386 77.2217 30.9759 77.7563 30.4871C78.2984 29.9984 78.6688 29.3761 78.8674 28.6201C78.9361 28.3528 78.9819 28.0817 79.0048 27.8067C79.0353 27.5395 79.0506 27.2531 79.0506 26.9477V13.7291H76.3244V14.4164C75.9044 14.088 75.4271 13.836 74.8926 13.6604C74.3657 13.4771 73.7816 13.3855 73.1401 13.3855C71.9565 13.3855 70.9255 13.6681 70.0474 14.2331C69.1692 14.7982 68.4857 15.5733 67.997 16.5584C67.5159 17.5358 67.2754 18.6546 67.2754 19.9146C67.2754 21.1517 67.5121 22.2627 67.9856 23.2479C68.4666 24.2329 69.1348 25.0119 69.9901 25.5846C70.8453 26.1573 71.8419 26.4437 72.9797 26.4437ZM73.4837 23.6717C72.8117 23.6717 72.2619 23.5037 71.8342 23.1677C71.4067 22.8317 71.0897 22.3812 70.8836 21.8161C70.6774 21.2433 70.5742 20.6095 70.5742 19.9146C70.5742 19.2273 70.6812 18.6012 70.895 18.0361C71.1088 17.4633 71.4372 17.009 71.8801 16.6729C72.3306 16.3293 72.9034 16.1575 73.5982 16.1575C74.5757 16.1575 75.2744 16.505 75.6944 17.1999C76.1145 17.8871 76.3244 18.7921 76.3244 19.9146C76.3244 21.0371 76.1106 21.9458 75.683 22.6407C75.263 23.3281 74.5299 23.6717 73.4837 23.6717Z" fill="#51564E"/>
<path d="M86.4505 26.4437C87.6876 26.4437 88.7758 26.1687 89.715 25.6189C90.6618 25.0615 91.3989 24.294 91.9254 23.3166C92.46 22.3315 92.7273 21.1975 92.7273 19.9146C92.7273 18.6393 92.4645 17.513 91.9371 16.5355C91.4106 15.5504 90.6735 14.7791 89.7265 14.2217C88.7872 13.6642 87.6952 13.3855 86.4505 13.3855C85.2286 13.3855 84.1481 13.6604 83.2089 14.2103C82.2696 14.7601 81.5327 15.5275 80.9981 16.5126C80.4636 17.49 80.1963 18.624 80.1963 19.9146C80.1963 21.1898 80.4559 22.3201 80.9752 23.3051C81.5021 24.2826 82.2352 25.05 83.1745 25.6075C84.1138 26.165 85.2058 26.4437 86.4505 26.4437ZM86.4505 23.5343C85.4806 23.5343 84.7437 23.2097 84.2397 22.5606C83.7434 21.9039 83.4952 21.0219 83.4952 19.9146C83.4952 18.8379 83.7319 17.9673 84.2054 17.3029C84.6865 16.631 85.4348 16.2949 86.4505 16.2949C87.4356 16.2949 88.1763 16.6233 88.6727 17.2801C89.1767 17.9368 89.4287 18.8149 89.4287 19.9146C89.4287 20.9761 89.1804 21.8466 88.6841 22.5263C88.1954 23.1982 87.4508 23.5343 86.4505 23.5343Z" fill="#51564E"/>
<path d="M94.1006 12.0108H97.2164V9.26172H94.1006V12.0108ZM94.1006 26.0999H97.2164V13.729H94.1006V26.0999Z" fill="#51564E"/>
<path d="M99.2529 31.5985H102.391V25.6536C102.796 25.9056 103.243 26.1003 103.731 26.2377C104.228 26.3752 104.766 26.4439 105.347 26.4439C106.484 26.4439 107.482 26.1576 108.337 25.5849C109.192 25.0121 109.856 24.2332 110.329 23.2481C110.811 22.263 111.051 21.1519 111.051 19.9149C111.051 18.6549 110.807 17.5361 110.318 16.5587C109.837 15.5736 109.157 14.7985 108.279 14.2334C107.401 13.6683 106.37 13.3857 105.187 13.3857C104.545 13.3857 103.957 13.4774 103.423 13.6607C102.895 13.8363 102.422 14.0883 102.002 14.4167V13.7294H99.2529V31.5985ZM104.843 23.6719C103.804 23.6719 103.072 23.3283 102.643 22.641C102.216 21.9461 102.002 21.0374 102.002 19.9149C102.002 18.7923 102.212 17.8874 102.632 17.2001C103.06 16.5052 103.758 16.1577 104.729 16.1577C105.423 16.1577 105.992 16.3296 106.435 16.6732C106.886 17.0092 107.218 17.4636 107.431 18.0363C107.645 18.6014 107.753 19.2276 107.753 19.9149C107.753 20.6098 107.649 21.2436 107.443 21.8163C107.237 22.3814 106.92 22.832 106.493 23.1679C106.065 23.5039 105.515 23.6719 104.843 23.6719Z" fill="#51564E"/>
<path d="M116.696 26.4437C118.315 26.4437 119.583 26.081 120.499 25.3555C121.415 24.63 121.873 23.6335 121.873 22.3659C121.873 21.4037 121.575 20.6439 120.98 20.0864C120.392 19.529 119.392 19.0669 117.979 18.7004C117.017 18.456 116.299 18.2575 115.825 18.1047C115.36 17.9521 115.05 17.8031 114.897 17.6581C114.752 17.513 114.68 17.3335 114.68 17.1197C114.68 16.7608 114.851 16.4859 115.195 16.2949C115.547 16.104 116.009 16.0277 116.581 16.0659C117.795 16.1575 118.46 16.6768 118.575 17.6237L121.759 17.0509C121.599 15.9284 121.049 15.0388 120.109 14.3821C119.17 13.7177 117.972 13.3855 116.513 13.3855C115.016 13.3855 113.821 13.7368 112.927 14.4393C112.034 15.1418 111.587 16.0887 111.587 17.2801C111.587 18.227 111.897 18.9753 112.515 19.5251C113.133 20.0674 114.199 20.5331 115.711 20.9226C116.605 21.1593 117.261 21.3502 117.681 21.4953C118.108 21.6404 118.384 21.7893 118.505 21.9421C118.628 22.0871 118.689 22.2819 118.689 22.5263C118.689 22.9157 118.536 23.2211 118.231 23.4426C117.926 23.6564 117.49 23.7633 116.925 23.7633C116.237 23.7633 115.669 23.5991 115.219 23.2707C114.776 22.9424 114.489 22.4881 114.359 21.9077L111.175 22.3887C111.381 23.6793 111.961 24.6797 112.916 25.3899C113.878 26.0924 115.138 26.4437 116.696 26.4437Z" fill="#51564E"/>
<path d="M127.62 26.4665C128.514 26.4665 129.292 26.3176 129.957 26.0198C130.622 25.722 131.179 25.3249 131.63 24.8285V26.1H134.378V13.729H131.24V20.0061C131.24 20.7698 131.152 21.3883 130.976 21.8618C130.809 22.3276 130.591 22.6827 130.324 22.927C130.056 23.1638 129.77 23.3241 129.464 23.4081C129.159 23.4921 128.873 23.5341 128.606 23.5341C127.941 23.5341 127.426 23.3852 127.059 23.0874C126.7 22.7896 126.44 22.4192 126.28 21.9763C126.12 21.5334 126.024 21.0943 125.994 20.659C125.963 20.2161 125.948 19.8534 125.948 19.5708V13.729H122.786V20.6705C122.786 20.8766 122.801 21.205 122.832 21.6556C122.863 22.1061 122.951 22.6063 123.096 23.1561C123.241 23.6983 123.481 24.2214 123.818 24.7254C124.161 25.2294 124.638 25.6455 125.249 25.974C125.86 26.3023 126.651 26.4665 127.62 26.4665Z" fill="#51564E"/>
<path d="M136.183 26.0999H139.321V18.6086C139.321 17.8985 139.515 17.3219 139.905 16.879C140.302 16.4284 140.825 16.2032 141.475 16.2032C142.154 16.2032 142.685 16.4323 143.067 16.8905C143.456 17.341 143.651 17.9748 143.651 18.7919V26.0999H146.767V18.6086C146.767 17.8985 146.961 17.3219 147.351 16.879C147.748 16.4284 148.271 16.2032 148.919 16.2032C149.6 16.2032 150.13 16.4323 150.512 16.8905C150.901 17.341 151.097 17.9748 151.097 18.7919V26.0999H154.211V17.9672C154.211 16.6155 153.849 15.5236 153.123 14.6912C152.406 13.8512 151.34 13.4312 149.927 13.4312C149.134 13.4312 148.405 13.603 147.74 13.9466C147.075 14.2903 146.545 14.7599 146.147 15.3555C145.827 14.7752 145.369 14.3094 144.773 13.9581C144.177 13.6068 143.437 13.4312 142.551 13.4312C141.802 13.4312 141.116 13.5801 140.489 13.8779C139.863 14.1681 139.343 14.569 138.931 15.0806V13.729H136.183V26.0999Z" fill="#51564E"/>
<path fill-rule="evenodd" clip-rule="evenodd" d="M16.3506 2C7.23788 2 -0.149414 9.16344 -0.149414 18C8.96329 18 16.3506 10.8366 16.3506 2ZM-0.149414 18C8.96329 18 16.3506 25.1634 16.3506 34C7.23788 34 -0.149414 26.8366 -0.149414 18ZM16.3506 34C25.4633 34 32.8506 26.8366 32.8506 18C23.7379 18 16.3506 25.1634 16.3506 34ZM32.8506 18C23.7379 18 16.3506 10.8366 16.3506 2C25.4633 2 32.8506 9.16344 32.8506 18Z" fill="#51564E"/>
</g>
<defs>
<clipPath id="clip0_6038_5883">
<rect width="154.8" height="36" fill="white" transform="translate(0.0507812)"/>
</clipPath>
</defs>
</svg>
