<svg width="20" height="20" viewBox="0 0 20 20" fill="none" xmlns="http://www.w3.org/2000/svg">
<path d="M15 11.667C15.3588 13.3369 16.663 14.6414 18.333 15C16.663 15.3586 15.3588 16.6631 15 18.333C14.6413 16.663 13.336 15.3586 11.666 15C13.336 14.6414 14.6413 13.337 15 11.667ZM7.55957 1.83301C8.31912 5.37014 11.0821 8.13385 14.6191 8.89355C11.0822 9.65327 8.31918 12.4161 7.55957 15.9531C6.79995 12.4161 4.03699 9.65325 0.5 8.89355C4.0371 8.13387 6.80001 5.37016 7.55957 1.83301ZM15.833 1.66699C16.1021 2.9194 17.0805 3.89804 18.333 4.16699C17.0804 4.43597 16.102 5.41442 15.833 6.66699C15.564 5.41448 14.5855 4.43602 13.333 4.16699C14.5855 3.89803 15.5639 2.91941 15.833 1.66699Z" fill="#3A7326"/>
</svg>
