<svg width="48" height="48" viewBox="0 0 48 48" fill="none" xmlns="http://www.w3.org/2000/svg">
<path fill-rule="evenodd" clip-rule="evenodd" d="M39 0C39.6455 3.00617 41.9938 5.35446 45 6C41.9938 6.64554 39.6455 8.99383 39 12C38.3545 8.99383 36.0062 6.64554 33 6C36.0062 5.35446 38.3545 3.00617 39 0ZM0 24C0 21.5147 2.01472 19.5 4.5 19.5H43.5C45.9853 19.5 48 21.5147 48 24C48 26.4853 45.9853 28.5 43.5 28.5H4.5C2.01472 28.5 0 26.4853 0 24ZM4.5 3C2.01472 3 0 5.01472 0 7.5C0 9.98528 2.01472 12 4.5 12H22.5C24.9853 12 27 9.98528 27 7.5C27 5.01472 24.9853 3 22.5 3H4.5ZM0 40.5C0 38.0147 2.01472 36 4.5 36H7.5C9.98528 36 12 38.0147 12 40.5C12 42.9853 9.98528 45 7.5 45H4.5C2.01472 45 0 42.9853 0 40.5ZM22.5 36C20.0147 36 18 38.0147 18 40.5C18 42.9853 20.0147 45 22.5 45H37.5C39.9853 45 42 42.9853 42 40.5C42 38.0147 39.9853 36 37.5 36H22.5Z" fill="#3A7326"/>
</svg>
